<?xml version="1.0" encoding="utf-8"?>
<!-- Generator: Adobe Illustrator 22.0.1, SVG Export Plug-In . SVG Version: 6.00 Build 0)  -->
<svg version="1.1" id="Layer_1" xmlns="http://www.w3.org/2000/svg" xmlns:xlink="http://www.w3.org/1999/xlink" x="0px" y="0px"
	 viewBox="0 0 500 500" style="enable-background:new 0 0 500 500;" xml:space="preserve" width="20px" height="20px">
<g>
	<path d="M489.1,453.4L399,363.4c64.3-80.5,64.3-194.9,0-275.4C323-7.3,184.1-22.8,88.9,53.3C-6.3,129.3-21.8,268.2,54.3,363.4
		S269.2,474.1,364.4,398l90.1,90.1c9.5,9.2,24.6,9.2,34.1,0C498.2,478.7,498.5,463.2,489.1,453.4z M226.6,397.2
		C131.9,397.2,55,320.4,55,225.6C55,130.9,131.9,54,226.6,54s171.6,76.8,171.6,171.6C398.2,320.4,321.4,397.2,226.6,397.2z"/>
	<path d="M328.8,205.2h-81.7v-81.7c0-11.3-9.1-20.4-20.4-20.4s-20.4,9.1-20.4,20.4v81.7h-81.7c-11.3,0-20.4,9.1-20.4,20.4
		c0,11.3,9.1,20.4,20.4,20.4h81.7v81.7c0,11.3,9.1,20.4,20.4,20.4s20.4-9.1,20.4-20.4v-81.7h81.7c11.3,0,20.4-9.1,20.4-20.4
		C349.2,214.3,340.1,205.2,328.8,205.2z"/>
</g>
</svg>
