<?xml version="1.0" encoding="utf-8"?>
<!-- Generator: Adobe Illustrator 22.0.1, SVG Export Plug-In . SVG Version: 6.00 Build 0)  -->
<svg version="1.1" id="Layer_1" xmlns="http://www.w3.org/2000/svg" xmlns:xlink="http://www.w3.org/1999/xlink" x="0px" y="0px"
	 viewBox="0 0 500 500" style="enable-background:new 0 0 500 500;" xml:space="preserve" width="20px" height="20px">
<style type="text/css">
	.st0{fill:none;}
</style>
<g>
	<path class="st0" d="M226.6,54C131.9,54,55,130.9,55,225.6c0,94.8,76.9,171.6,171.6,171.6c94.8,0,171.6-76.8,171.6-171.6
		S321.3,54,226.6,54z"/>
	<path d="M489.1,453.4l-90.1-90c64.3-80.5,64.3-194.9,0-275.4C323-7.3,184.1-22.8,88.9,53.3c-95.2,76-110.7,214.9-34.6,310.1
		S269.2,474.1,364.4,398l90.1,90.1c9.5,9.2,24.6,9.2,34.1,0C498.2,478.7,498.5,463.2,489.1,453.4z M226.6,397.2
		C131.9,397.2,55,320.4,55,225.6C55,130.9,131.9,54,226.6,54s171.6,76.8,171.6,171.6S321.4,397.2,226.6,397.2z"/>
	<path d="M247.1,246h81.7c11.3,0,20.4-9.1,20.4-20.4s-9.1-20.4-20.4-20.4h-81.7"/>
	<path d="M256.3,205.2H124.6c-11.3,0-20.4,9.1-20.4,20.4s9.1,20.4,20.4,20.4h131.7"/>
</g>
</svg>
