<svg xmlns="http://www.w3.org/2000/svg" width="36" height="29" viewBox="0 0 36 29">
    <g fill="none" fill-rule="evenodd">
        <rect width="36" height="24" y="5" fill="#FFC900" rx="2"/>
        <path fill="#FFF" d="M5.641 24.247L18 29l12.359-4.753a1 1 0 0 0 .641-.934V1.456a1 1 0 0 0-1.359-.933L18 5 6.359.523A1 1 0 0 0 5 1.456v21.857a1 1 0 0 0 .641.934z"/>
        <path fill="#2855AC" d="M9.149 10.436a1 1 0 0 1 .702-1.872l4.251 1.594a1 1 0 0 1-.702 1.872l-4.251-1.594zm0 7a1 1 0 1 1 .702-1.872l4.251 1.594a1 1 0 0 1-.702 1.872l-4.251-1.594zm17.89-7l-4.252 1.594a1 1 0 0 1-.702-1.872l4.251-1.594a1 1 0 1 1 .702 1.872zm0 7l-4.252 1.594a1 1 0 0 1-.702-1.872l4.251-1.594a1 1 0 1 1 .702 1.872z"/>
    </g>
</svg>
