<svg xmlns="http://www.w3.org/2000/svg" width="36" height="31" viewBox="0 0 36 31">
    <g fill="none" fill-rule="evenodd">
        <path fill="#FFF" d="M10.918 22.422l-4.96 3.275a1 1 0 0 1-1.55-.894l.31-5.166C1.8 17.553 0 14.699 0 11.55 0 5.171 7.387 0 16.5 0S33 5.171 33 11.55c0 6.379-7.387 11.55-16.5 11.55-1.96 0-3.838-.239-5.582-.678z"/>
        <path fill="#FFC900" d="M29.137 28.247a1 1 0 0 0 .26.249l2.205 1.456a1 1 0 0 0 1.549-.894l-.154-2.562C34.855 25.17 36 23.354 36 21.35 36 17.29 31.299 14 25.5 14S15 17.29 15 21.35s4.701 7.35 10.5 7.35c1.278 0 2.504-.16 3.637-.453z"/>
    </g>
</svg>
