<svg xmlns="http://www.w3.org/2000/svg" width="62" height="39" viewBox="0 0 62 39">
    <g fill="none" fill-rule="evenodd">
        <path fill="#FFF" stroke="#FFF" stroke-width=".5" d="M51.931 1.242l8.511-.097a.986.986 0 0 1 1.048.867l.002.015a.93.93 0 0 1 .005.101v.014l-.099 8.567a1.033 1.033 0 0 1-.304.716 1.01 1.01 0 0 1-1.428.02.987.987 0 0 1-.288-.714l.088-7.558-7.558.089a.982.982 0 0 1-.98-1.016c.016-.544.46-.988 1.003-1.004z"/>
        <path fill="#FFC900" d="M34.004 38.998h17.178c3.65 0 6.607-2.286 6.607-5.106v-.95c0-.565-.591-1.022-1.321-1.022H3.61c-.73 0-1.322.457-1.322 1.021v.951c0 2.82 2.958 5.106 6.607 5.106H34.004z"/>
        <path stroke="#FFF" stroke-linecap="round" stroke-linejoin="round" stroke-width="2" d="M59.198 3.379L32.5 30.077a3 3 0 0 1-4.243 0L1.56 3.38"/>
        <path fill="#2855AC" d="M26.644 24.897c-.717 0-1.298-.568-1.298-1.269v-5.074c0-.7.581-1.268 1.298-1.268.717 0 1.298.568 1.298 1.268v5.074c0 .701-.58 1.269-1.298 1.269z"/>
    </g>
</svg>
