<?xml version="1.0" encoding="UTF-8"?>
<svg viewBox="0 0 30 32" version="1.1" xmlns="http://www.w3.org/2000/svg" xmlns:xlink="http://www.w3.org/1999/xlink">
    <!-- Generator: sketchtool 52.3 (67297) - http://www.bohemiancoding.com/sketch -->
    <title>307D70FF-1AED-449A-8206-F0B63A450B20</title>
    <desc>Created with sketchtool.</desc>
    <g id="Symbol-Library" stroke="none" stroke-width="1" fill="none" fill-rule="evenodd">
        <g id="Pictograms/Logout" transform="translate(-19.000000, -16.000000)">
            <g id="Pictogram/Gaming">
                <g id="exit" transform="translate(19.000000, 16.000000)">
                    <path d="M23.171234,11.9769825 L23.171234,3.32718908 C23.171234,1.48984016 21.6471064,0.000374269006 19.767,0.000374269006 L3.42657447,0.000374269006 C3.05055319,0.000374269006 2.74570213,0.298292398 2.74570213,0.665762183 L2.74570213,27.2804678 C2.74570213,27.6479376 3.05055319,27.9458558 3.42657447,27.9458558 L19.767,27.9458558 C21.6471064,27.9458558 23.171234,26.4563899 23.171234,24.6190409 L23.171234,15.9691852 L23.171234,11.9769825 Z" id="Path" fill="#FFC900"></path>
                    <path d="M11.8568936,3.47221832 L4.12238298,0.233231969 C2.62934043,-0.392233918 0.900191489,0.28357115 0.260234043,1.74265887 C0.103531915,2.09996101 0.0225957447,2.48464717 0.0223404255,2.87338791 L0.0223404255,25.8245614 C0.0214468085,26.9745029 0.72287234,28.0139727 1.80478723,28.4660897 L9.53923404,31.7064483 C11.0322766,32.3319142 12.7614255,31.6561092 13.4014468,30.1970214 C13.5583404,29.8392827 13.6392766,29.4541598 13.6393404,29.0649825 L13.6393404,6.11374659 C13.640234,4.96380507 12.9388085,3.92433528 11.8568936,3.47221832 Z" id="Path" fill="#FFFFFF"></path>
                    <path d="M27.6550233,14.6384094 L17.6818936,14.6384094 C17.3058723,14.6384094 17.0010213,14.3404912 17.0010213,13.9730214 C17.0010213,13.6055517 17.3058723,13.3076335 17.6818936,13.3076335 L27.6550233,13.3076335 L24.7317447,10.4518986 C24.4704894,10.1876023 24.4780213,9.76636257 24.7484681,9.51104873 C25.0123404,9.26197271 25.430617,9.26197271 25.6944894,9.51104873 L29.7527922,13.4770575 C29.892095,13.598897 29.979766,13.7759582 29.979766,13.9730214 C29.979766,14.1612588 29.8997994,14.3312191 29.7712607,14.4522468 L25.6944894,18.4363041 C25.5668936,18.5607485 25.3940426,18.6306121 25.2137872,18.6306121 C24.837766,18.6312982 24.5324043,18.3338791 24.5317021,17.9664094 C24.531383,17.7892554 24.603383,17.6192749 24.7317447,17.4941442 L27.6550233,14.6384094 Z" id="Combined-Shape" fill="#FFFFFF"></path>
                    <path d="M10.0961538,19.9312876 C9.61823308,19.9312876 9.23076923,19.5526355 9.23076923,19.0855836 L9.23076923,15.7028469 C9.23076923,15.235795 9.61823308,14.8571429 10.0961538,14.8571429 C10.5740746,14.8571429 10.9615385,15.235795 10.9615385,15.7028469 L10.9615385,19.0855836 C10.9614573,19.5527147 10.5740746,19.9312876 10.0961538,19.9312876 Z" id="SVGCleanerId_0_3_" fill="#2855AC"></path>
                </g>
            </g>
        </g>
    </g>
</svg>
