<svg xmlns="http://www.w3.org/2000/svg" xmlns:xlink="http://www.w3.org/1999/xlink" width="24" height="16" viewBox="0 0 24 16">
    <defs>
        <path id="a" d="M0 .032h23.999v15.351H0z"/>
    </defs>
    <g fill="none" fill-rule="evenodd">
        <path fill="#FFF" d="M20.612 5.174l.525-.484a12.155 12.155 0 0 0-2.674-2.476l-.47.547a11.43 11.43 0 0 1 2.62 2.413"/>
        <g transform="translate(0 .069)">
            <mask id="b" fill="#fff">
                <use xlink:href="#a"/>
            </mask>
            <path fill="#FFF" d="M14.176 12.165c0 .214-.038.44-.115.687-.293.936-1.122 1.565-2.062 1.565-.94 0-1.768-.629-2.061-1.565a2.294 2.294 0 0 1-.115-.687c0-1.242.976-2.253 2.176-2.253.425 0 .838.13 1.196.374.274.188.502.441.679.754.2.357.302.735.302 1.125m7.725-6.69l-.074-.114-.62.572a11.68 11.68 0 0 0-.595-.828L18.553 7a.34.34 0 0 0-.026.469l.31.362c.119.136.321.149.454.027l1.896-1.746a11.812 11.812 0 0 1 1.868 5.932h-7.947a3.283 3.283 0 0 0-.45-1.544l2.46-2.546a.457.457 0 0 0 .128-.32.457.457 0 0 0-.128-.32l-.33-.342a.437.437 0 0 0-.619 0l-2.438 2.523a3.009 3.009 0 0 0-1.732-.55c-1.675 0-3.042 1.38-3.104 3.099H.943a11.807 11.807 0 0 1 1.903-5.987l1.954 1.8c.133.122.337.11.456-.028l.308-.359A.342.342 0 0 0 5.537 7L3.513 5.134l.002-.003a11.274 11.274 0 0 1 2.623-2.383l.017-.01L8.17 5.082c.119.138.324.15.457.027l.345-.318A.343.343 0 0 0 9 4.32L7.146 2.164a10.585 10.585 0 0 1 4.353-1.16v3.239c0 .205.161.371.36.371h.39c.198 0 .36-.166.36-.371V1.009c1.51.086 2.963.488 4.319 1.195l-1.822 2.118a.34.34 0 0 0 .027.468l.35.322c.132.122.334.11.452-.027l2.057-2.393c-.284-.188-.58-.36-.88-.521l.564-.655-.132-.072A11.483 11.483 0 0 0 12.614.04l-.122-.006v.85a10.518 10.518 0 0 0-.493-.015c-.128 0-.256.005-.383.01V.032l-.122.005A11.484 11.484 0 0 0 6.53 1.403l-.133.072.564.656c-.267.141-.527.293-.78.455l-.555-.645-.085.056a12.244 12.244 0 0 0-2.729 2.498l-.072.09.615.567c-.185.235-.36.477-.527.727l-.62-.57-.075.113A12.781 12.781 0 0 0 0 12.527v.483h9.008c.37 1.4 1.582 2.373 2.991 2.373 1.41 0 2.63-.97 2.998-2.373H24v-.483c0-2.528-.726-4.967-2.098-7.052" mask="url(#b)"/>
        </g>
    </g>
</svg>
