<svg xmlns="http://www.w3.org/2000/svg" width="39" height="27" viewBox="0 0 39 27">
    <path fill="#FFF" fill-rule="evenodd" d="M26.637 3.306A6 6 0 0 1 32 0a6.72 6.72 0 0 1 6.699 6.192c.2 2.553.301 5.155.301 7.808 0 2.223-.095 4.494-.285 6.812A6.738 6.738 0 0 1 32 27a6 6 0 0 1-6-6v-.25a72.219 72.219 0 0 1-13-.09V21a6 6 0 0 1-6 6C3.485 27 .56 24.3.276 20.797A84.381 84.381 0 0 1 0 14c0-2.642.101-5.246.304-7.812A6.717 6.717 0 0 1 7 0a6 6 0 0 1 5.409 3.4 72.35 72.35 0 0 1 14.228-.094zM7 11H5a1 1 0 0 0 0 2h2v2a1 1 0 0 0 2 0v-2h2a1 1 0 0 0 0-2H9V9a1 1 0 1 0-2 0v2zm20.5 3a1.5 1.5 0 1 0 0-3 1.5 1.5 0 0 0 0 3zm6 0a1.5 1.5 0 1 0 0-3 1.5 1.5 0 0 0 0 3zm-3-3a1.5 1.5 0 1 0 0-3 1.5 1.5 0 0 0 0 3zm0 6a1.5 1.5 0 1 0 0-3 1.5 1.5 0 0 0 0 3zM17 9a2 2 0 0 0-2 2v2a2 2 0 0 0 2 2h5a2 2 0 0 0 2-2v-2a2 2 0 0 0-2-2h-5z"/>
</svg>
