<svg xmlns="http://www.w3.org/2000/svg" width="31" height="35" viewBox="0 0 31 35">
    <g fill="none" fill-rule="evenodd">
        <path fill="#FFF" d="M3 16h26a2 2 0 0 1 2 2v13a4 4 0 0 1-4 4H5a4 4 0 0 1-4-4V18a2 2 0 0 1 2-2zm11 6v8l6-4-6-4z"/>
        <path fill="#FFC900" d="M3.32 6.93L25.537.975a4 4 0 0 1 4.899 2.829l.517 1.932a2 2 0 0 1-1.414 2.45L3.46 15.173a2 2 0 0 1-2.45-1.414l-.517-1.932A4 4 0 0 1 3.32 6.93zm3.097.432a1 1 0 0 0-.958.713l-1.453 4.84a.754.754 0 0 0 .722.97h.27a1 1 0 0 0 .958-.712l1.453-4.84a.754.754 0 0 0-.722-.97h-.27zm4.896-1.312a1 1 0 0 0-.958.713l-1.453 4.84a.754.754 0 0 0 .723.97h.27a1 1 0 0 0 .957-.712l1.453-4.84a.754.754 0 0 0-.722-.97h-.27zm4.896-1.312a1 1 0 0 0-.957.713l-1.454 4.84a.754.754 0 0 0 .723.97h.27a1 1 0 0 0 .957-.712l1.454-4.84a.754.754 0 0 0-.723-.97h-.27zm4.897-1.311a1 1 0 0 0-.958.712l-1.453 4.84a.754.754 0 0 0 .722.97h.27a1 1 0 0 0 .958-.712l1.453-4.84a.754.754 0 0 0-.723-.97h-.27zm4.896-1.312a1 1 0 0 0-.958.712l-1.453 4.84a.754.754 0 0 0 .722.97h.27a1 1 0 0 0 .958-.712l1.453-4.84a.754.754 0 0 0-.722-.97h-.27z"/>
    </g>
</svg>
