<?xml version="1.0" encoding="UTF-8"?>
<svg width="28px" height="28px" viewBox="0 0 28 28" version="1.1" xmlns="http://www.w3.org/2000/svg" xmlns:xlink="http://www.w3.org/1999/xlink">
    <!-- Generator: sketchtool 52.3 (67297) - http://www.bohemiancoding.com/sketch -->
    <title>51659226-AD7A-496F-A78E-CFC4F185CB04</title>
    <desc>Created with sketchtool.</desc>
    <g id="00_Design_Language_System" stroke="none" stroke-width="1" fill="none" fill-rule="evenodd">
        <g id="00.06_Icons&amp;Pictograms" transform="translate(-232.000000, -798.000000)">
            <g id="Pictograms/Wearables" transform="translate(214.000000, 782.000000)">
                <g transform="translate(18.000000, 16.000000)">
                    <path d="M4,25 L2,25 L2,11.9411765 C2,5.34504295 7.37377974,0 14,0 C20.6262203,0 26,5.34504295 26,11.9411765 L26,25 L24,25 L24,11.9411765 C24,6.45202017 19.5240442,2 14,2 C8.47595576,2 4,6.45202017 4,11.9411765 L4,25 Z" id="Rectangle-35" fill="#FFC900"></path>
                    <path d="M4,23 L2,23 L2,15.9411765 C2,9.34504295 7.37377974,4 14,4 C20.6262203,4 26,9.34504295 26,15.9411765 L26,23 L24,23 L24,15.9411765 C24,10.4520202 19.5240442,6 14,6 C8.47595576,6 4,10.4520202 4,15.9411765 L4,23 Z" id="Rectangle-35" fill="#FFC900"></path>
                    <path d="M24,15 C26.209139,15 28,16.790861 28,19 L28,24 C28,26.209139 26.209139,28 24,28 C21.790861,28 20,26.209139 20,24 L20,19 C20,16.790861 21.790861,15 24,15 Z" id="Rectangle-3" fill="#FFFFFF"></path>
                    <path d="M4,15 C6.209139,15 8,16.790861 8,19 L8,24 C8,26.209139 6.209139,28 4,28 C1.790861,28 0,26.209139 0,24 L0,19 C8.8817842e-16,16.790861 1.790861,15 4,15 Z" id="Rectangle-3" fill="#FFFFFF"></path>
                </g>
            </g>
        </g>
    </g>
</svg>