<?xml version="1.0" encoding="UTF-8"?>
<svg width="41px" height="34px" viewBox="0 0 41 34" version="1.1" xmlns="http://www.w3.org/2000/svg" xmlns:xlink="http://www.w3.org/1999/xlink">
    <g id="Page-1" stroke="none" stroke-width="1" fill="none" fill-rule="evenodd">
        <g id="Group" fill-rule="nonzero">
            <path d="M20.433,6.314 C27.257,6.384 31.533,5.943 32.11,13.784 L40.432,13.784 C40.432,1.637 30.212,0 20.216,0 C10.22,0 0,1.637 0,13.784 L8.258,13.784 C8.896,5.794 13.665,6.245 20.433,6.314 Z" id="Path" fill="#FFFFFF"></path>
            <path d="M4.135,17.458 C6.146,17.458 7.819,17.578 8.191,15.619 C8.241,15.353 8.271,15.052 8.271,14.703 L0,14.703 C0,17.615 1.851,17.458 4.135,17.458 L4.135,17.458 Z M32.24,14.703 L32.162,14.703 C32.162,15.073 32.192,15.393 32.249,15.67 C32.639,17.576 34.303,17.458 36.297,17.458 C38.581,17.458 40.432,17.616 40.432,14.703 L32.24,14.703 Z" id="Shape" fill="#FFC900"></path>
            <path d="M28.06,12.775 L28.06,11.59 C28.06,11.06 27.45,11.027 26.698,11.027 L25.468,11.027 C24.716,11.027 24.107,11.06 24.107,11.59 L24.107,13.404 L15.41,13.404 L15.41,11.59 C15.41,11.06 14.8,11.026 14.048,11.026 L12.818,11.026 C12.066,11.026 11.457,11.059 11.457,11.589 L11.457,13.81 C9.475,15.873 2.992,24.654 2.757,25.718 L2.76,32.812 C2.76,33.467 3.292,34 3.946,34 L35.57,34 C36.224,34 36.756,33.467 36.756,32.812 L36.756,25.682 C36.523,24.65 30.041,15.872 28.059,13.809 L28.059,12.775 L28.06,12.775 Z M14.98,26.672 C14.343054,26.6708963 13.8274471,26.1539467 13.828,25.517 C13.8062697,25.0912218 14.0210588,24.6881493 14.386597,24.4687385 C14.7521353,24.2493277 15.2088647,24.2493277 15.574403,24.4687385 C15.9399412,24.6881493 16.1547303,25.0912218 16.133,25.517 C16.133,26.156 15.617,26.672 14.98,26.672 L14.98,26.672 Z M14.98,22.712 C14.67394,22.71147 14.3806261,22.5893797 14.1645841,22.3725875 C13.948542,22.1557954 13.8274691,21.86206 13.828,21.556 C13.8062697,21.1302218 14.0210588,20.7271493 14.386597,20.5077385 C14.7521353,20.2883277 15.2088647,20.2883277 15.574403,20.5077385 C15.9399412,20.7271493 16.1547303,21.1302218 16.133,21.556 C16.133,22.195 15.617,22.711 14.98,22.711 L14.98,22.712 Z M14.98,18.751 C14.3421111,18.751 13.825,18.2338889 13.825,17.596 C13.825,16.9581111 14.3421111,16.441 14.98,16.441 C15.6178889,16.441 16.135,16.9581111 16.135,17.596 C16.135,18.2338889 15.6178889,18.751 14.98,18.751 Z M19.724,26.672 C19.4179401,26.6717349 19.124521,26.5498988 18.9082915,26.3332942 C18.6920621,26.1166897 18.5707347,25.8230599 18.571,25.517 C18.5533629,25.093618 18.7691846,24.6946259 19.1331866,24.4776789 C19.4971886,24.260732 19.9508114,24.260732 20.3148134,24.4776789 C20.6788154,24.6946259 20.8946371,25.093618 20.877,25.517 C20.877,26.156 20.361,26.672 19.724,26.672 L19.724,26.672 Z M19.724,22.712 C19.4177666,22.7117351 19.1241958,22.5897617 18.9079375,22.3729408 C18.6916793,22.1561198 18.5704692,21.862233 18.571,21.556 C18.5533629,21.132618 18.7691846,20.7336259 19.1331866,20.5166789 C19.4971886,20.299732 19.9508114,20.299732 20.3148134,20.5166789 C20.6788154,20.7336259 20.8946371,21.132618 20.877,21.556 C20.877,22.195 20.361,22.711 19.724,22.711 L19.724,22.712 Z M19.724,18.751 C19.0861111,18.751 18.569,18.2338889 18.569,17.596 C18.569,16.9581111 19.0861111,16.441 19.724,16.441 C20.361,16.441 20.877,16.958 20.877,17.596 C20.877,18.234 20.361,18.751 19.724,18.751 L19.724,18.751 Z M24.468,26.672 C24.1618585,26.6720005 23.868285,26.5502495 23.651998,26.3335873 C23.4357109,26.1169251 23.314469,25.823141 23.315,25.517 C23.315,25.1050728 23.5347605,24.7244363 23.8915,24.5184727 C24.2482394,24.312509 24.6877606,24.312509 25.0445,24.5184727 C25.4012395,24.7244363 25.621,25.1050728 25.621,25.517 C25.621,26.156 25.105,26.672 24.468,26.672 L24.468,26.672 Z M24.468,22.712 C24.1616849,22.712001 23.8679593,22.5901129 23.6516434,22.3732341 C23.4353275,22.1563554 23.314203,21.8623141 23.315,21.556 C23.315,21.1440728 23.5347605,20.7634363 23.8915,20.5574727 C24.2482394,20.351509 24.6877606,20.351509 25.0445,20.5574727 C25.4012395,20.7634363 25.621,21.1440728 25.621,21.556 C25.621,22.195 25.105,22.711 24.468,22.711 L24.468,22.712 Z M24.468,18.751 C24.1618585,18.7510005 23.868285,18.6292495 23.651998,18.4125873 C23.4357109,18.1959251 23.314469,17.902141 23.315,17.596 C23.2973629,17.172618 23.5131846,16.7736259 23.8771866,16.5566789 C24.2411886,16.339732 24.6948114,16.339732 25.0588134,16.5566789 C25.4228154,16.7736259 25.6386371,17.172618 25.621,17.596 C25.621,18.234 25.105,18.751 24.468,18.751 L24.468,18.751 Z" id="Shape" fill="#FFFFFF"></path>
        </g>
    </g>
</svg>