<svg xmlns="http://www.w3.org/2000/svg" viewBox="0 0 22 29">
    <g fill="none" fill-rule="evenodd" stroke-width=".672">
        <path fill="#FFF" stroke="#FFF" d="M18.778 26.875H3.222a1.12 1.12 0 0 1-1.11-1.125V3.25c0-.62.497-1.125 1.11-1.125h11.111V5.5c0 1.24.998 2.25 2.223 2.25h3.333v18a1.12 1.12 0 0 1-1.111 1.125zM15.444 2.92l3.66 3.705h-2.548A1.12 1.12 0 0 1 15.444 5.5V2.92zm5.393 3.87l-5.555-5.625A.552.552 0 0 0 14.889 1H3.222C1.997 1 1 2.01 1 3.25v22.5C1 26.99 1.997 28 3.222 28h15.556C20.003 28 21 26.99 21 25.75V7.187a.566.566 0 0 0-.163-.397z"/>
        <path fill="#FFC900" stroke="#FFC900" d="M17.111 21.25H4.89a.559.559 0 0 0-.556.562c0 .311.249.563.556.563H17.11a.559.559 0 0 0 .556-.563.559.559 0 0 0-.556-.562M17.111 15.85H4.89a.559.559 0 0 0-.556.562c0 .311.249.563.556.563H17.11a.559.559 0 0 0 .556-.563.559.559 0 0 0-.556-.562M17.111 10.45H4.89a.559.559 0 0 0-.556.562c0 .311.249.563.556.563H17.11a.559.559 0 0 0 .556-.563.559.559 0 0 0-.556-.562"/>
    </g>
</svg>
