<svg xmlns="http://www.w3.org/2000/svg" xmlns:xlink="http://www.w3.org/1999/xlink" width="32" height="30" viewBox="0 0 32 30">
    <defs>
        <path id="a" d="M0 .094h31.94v29.794H0z"/>
    </defs>
    <g fill="none" fill-rule="evenodd">
        <path fill="#FBD10A" d="M8.565 1.479a9.508 9.508 0 0 0-4.35 2.278C1.69 6.062.635 9.419 1.39 12.737l1.977 8.683c.755 3.317 3.163 5.9 6.441 6.912 3.279 1.01 6.743.237 9.266-2.069l9.344-8.537c1.952-1.785 2.769-4.382 2.185-6.947-.584-2.566-2.447-4.565-4.984-5.347L13.48 1.688a9.57 9.57 0 0 0-4.915-.21m6.245 27.434a9.951 9.951 0 0 1-5.115-.218c-3.41-1.052-5.916-3.74-6.701-7.19L1.017 12.82c-.786-3.45.313-6.943 2.938-9.342 2.625-2.4 6.229-3.203 9.64-2.152l12.14 3.744c2.668.823 4.628 2.926 5.243 5.625.614 2.7-.245 5.432-2.3 7.31l-9.343 8.537c-1.312 1.2-2.87 2-4.525 2.37"/>
        <g transform="translate(0 .018)">
            <mask id="b" fill="#fff">
                <use xlink:href="#a"/>
            </mask>
            <path fill="#FBD10A" d="M10.613 1.996c-.633 0-1.264.069-1.88.206a8.778 8.778 0 0 0-3.998 2.095c-2.32 2.12-3.29 5.205-2.595 8.254l1.976 8.684c.694 3.049 2.908 5.424 5.921 6.353 3.014.93 6.198.219 8.518-1.9l9.344-8.539c1.748-1.598 2.48-3.923 1.956-6.221-.523-2.298-2.191-4.088-4.463-4.788l-12.14-3.744a8.969 8.969 0 0 0-2.639-.4m2.066 27.892c-1.079 0-2.163-.163-3.212-.487-3.676-1.133-6.375-4.03-7.222-7.748L.268 12.969C-.578 9.25.605 5.487 3.435 2.902 6.264.316 10.147-.551 13.823.582l12.14 3.744c2.933.905 5.088 3.217 5.763 6.184.676 2.968-.269 5.972-2.527 8.035l-9.343 8.538a10.707 10.707 0 0 1-4.877 2.553c-.754.168-1.525.252-2.3.252" mask="url(#b)"/>
        </g>
        <path fill="#FFF" d="M16.585 2.943l9.421 5.618c4.3 2.565 4.185 8.777-.209 11.183l-9.624 5.27c-5.647 3.09-12.556-1.03-12.436-7.418l.144-7.698c.12-6.388 7.177-10.252 12.704-6.955"/>
        <path fill="#FBD10A" d="M9.521 19.89c-.28-1.641 1.127-3.048 2.787-2.787a2.413 2.413 0 0 1 1.99 1.95c.28 1.642-1.127 3.05-2.787 2.788a2.412 2.412 0 0 1-1.99-1.95M9.521 13.733c-.28-1.641 1.127-3.049 2.787-2.788a2.413 2.413 0 0 1 1.99 1.951c.28 1.642-1.127 3.049-2.787 2.788a2.412 2.412 0 0 1-1.99-1.951M9.521 7.576c-.28-1.642 1.127-3.05 2.787-2.788a2.413 2.413 0 0 1 1.99 1.95c.28 1.642-1.127 3.05-2.787 2.788a2.412 2.412 0 0 1-1.99-1.95"/>
    </g>
</svg>
