<svg xmlns="http://www.w3.org/2000/svg" xmlns:xlink="http://www.w3.org/1999/xlink" width="33" height="30" viewBox="0 0 33 30">
    <defs>
        <path id="a" d="M.02.095H31.72v29.793H.019z"/>
        <path id="c" d="M0 .021h3.947v11.461H0z"/>
    </defs>
    <g fill="none" fill-rule="evenodd">
        <path fill="#FBD10A" d="M9.759 1.479A9.414 9.414 0 0 0 5.44 3.756C2.937 6.062 1.89 9.42 2.638 12.736l1.963 8.684c.749 3.317 3.139 5.9 6.393 6.911 3.254 1.011 6.692.238 9.197-2.068l9.274-8.538a7.191 7.191 0 0 0 2.168-6.946c-.58-2.566-2.429-4.565-4.946-5.347L14.638 1.688a9.431 9.431 0 0 0-4.88-.21m6.2 27.434a9.807 9.807 0 0 1-5.077-.218c-3.385-1.052-5.872-3.74-6.651-7.19l-1.963-8.685c-.78-3.45.31-6.942 2.917-9.341 2.605-2.4 6.182-3.204 9.567-2.152l12.05 3.743c2.648.823 4.593 2.926 5.203 5.626.61 2.7-.243 5.432-2.281 7.309l-9.274 8.538a9.795 9.795 0 0 1-4.492 2.37"/>
        <g transform="translate(1.239 .018)">
            <mask id="b" fill="#fff">
                <use xlink:href="#a"/>
            </mask>
            <path fill="#FBD10A" d="M8.687 2.202A8.691 8.691 0 0 0 4.72 4.297c-2.302 2.12-3.265 5.206-2.576 8.254l1.962 8.685c.689 3.048 2.886 5.423 5.877 6.352 2.99.93 6.15.22 8.453-1.9l9.274-8.539a6.44 6.44 0 0 0 1.942-6.221 6.456 6.456 0 0 0-4.43-4.788L13.173 2.396a8.702 8.702 0 0 0-4.486-.194m3.916 27.686c-1.07 0-2.146-.163-3.187-.486-3.649-1.134-6.328-4.031-7.168-7.75L.286 12.97C-.554 9.25.62 5.487 3.428 2.902 6.236.316 10.091-.55 13.738.582l12.05 3.744c2.912.905 5.05 3.217 5.72 6.185.671 2.967-.267 5.97-2.508 8.034l-9.274 8.538a10.597 10.597 0 0 1-4.84 2.553c-.748.168-1.514.252-2.283.252" mask="url(#b)"/>
        </g>
        <path fill="#FFF" d="M16.187 24c-3.61 0-6.535-2.92-6.535-6.52 0-3.6 2.926-6.52 6.535-6.52s6.535 2.92 6.535 6.52c0 3.6-2.926 6.52-6.535 6.52m0-20.49c1.03 0 1.867.834 1.867 1.862a1.866 1.866 0 0 1-1.867 1.863 1.866 1.866 0 0 1-1.867-1.863c0-1.028.836-1.862 1.867-1.862m8.402-1.863H7.785c-1.031 0-1.867.834-1.867 1.863v22.352c0 1.028.836 1.863 1.867 1.863h16.804c1.03 0 1.867-.835 1.867-1.863V3.51a1.866 1.866 0 0 0-1.867-1.863"/>
        <path fill="#FFF" d="M16.187 13.754a3.73 3.73 0 0 1 3.734 3.726 3.73 3.73 0 0 1-3.734 3.725 3.73 3.73 0 0 1-3.735-3.725 3.73 3.73 0 0 1 3.735-3.726"/>
        <path fill="#FBD10A" d="M14.405 5.693a1.844 1.844 0 0 1 3.633-.641 1.844 1.844 0 0 1-2.12 2.136 1.842 1.842 0 0 1-1.513-1.495"/>
        <path fill="#FFF" d="M27.896 13.643a.59.59 0 0 0-.833 0 .587.587 0 0 0 0 .831 4.279 4.279 0 0 1 1.266 3.05c0 1.151-.45 2.234-1.266 3.048a.587.587 0 0 0 .417 1.004c.15 0 .301-.057.416-.172a5.444 5.444 0 0 0 1.612-3.88 5.445 5.445 0 0 0-1.612-3.881"/>
        <path fill="#FFF" d="M29.612 11.932a.59.59 0 0 0-.834 0 .587.587 0 0 0 0 .831 6.728 6.728 0 0 1 0 9.52.587.587 0 0 0 .417 1.004c.15 0 .301-.057.417-.172a7.903 7.903 0 0 0 0-11.183M26.252 15.284a.59.59 0 0 0-.834 0 .587.587 0 0 0 0 .831c.377.376.585.877.585 1.409 0 .531-.208 1.03-.585 1.407a.587.587 0 0 0 .417 1.004c.15 0 .302-.057.417-.172.6-.598.93-1.394.93-2.24 0-.846-.33-1.64-.93-2.24M4.5 13.746a.59.59 0 0 1 .829.095.587.587 0 0 1-.095.826 4.28 4.28 0 0 0-1.605 2.886 4.276 4.276 0 0 0 .911 3.172.587.587 0 0 1-.528.95.588.588 0 0 1-.395-.218 5.443 5.443 0 0 1-1.16-4.038A5.449 5.449 0 0 1 4.5 13.746"/>
        <g transform="translate(0 11.703)">
            <mask id="d" fill="#fff">
                <use xlink:href="#c"/>
            </mask>
            <path fill="#FFF" d="M2.991.149a.59.59 0 0 1 .828.094.587.587 0 0 1-.094.827 6.729 6.729 0 0 0-1.084 9.458.587.587 0 0 1-.528.95.587.587 0 0 1-.395-.218C-1.002 7.846-.43 2.862 2.991.149" mask="url(#d)"/>
        </g>
        <path fill="#FFF" d="M5.948 15.563a.59.59 0 0 1 .828.094.587.587 0 0 1-.094.826c-.418.332-.681.805-.742 1.333-.06.528.09 1.049.42 1.465a.587.587 0 0 1-.527.95.589.589 0 0 1-.395-.218 3.14 3.14 0 0 1-.669-2.33 3.145 3.145 0 0 1 1.179-2.12"/>
    </g>
</svg>
