<svg xmlns="http://www.w3.org/2000/svg" width="31" height="30" viewBox="0 0 31 30">
    <g fill="none" fill-rule="evenodd">
        <path fill="#FBD10A" d="M8.297 2.094a9.172 9.172 0 0 0-4.214 2.235C1.64 6.593.616 9.89 1.347 13.144l1.915 8.525c.732 3.255 3.065 5.791 6.24 6.784 3.177.992 6.532.233 8.977-2.03l9.052-8.381a7.084 7.084 0 0 0 2.116-6.82c-.566-2.518-2.37-4.48-4.827-5.248L13.06 2.299a9.155 9.155 0 0 0-4.763-.205m6.05 26.929a9.52 9.52 0 0 1-4.955-.215c-3.304-1.032-5.73-3.67-6.492-7.058L.985 13.226c-.76-3.387.303-6.815 2.847-9.17C6.375 1.701 9.866.911 13.17 1.944l11.76 3.674c2.585.808 4.484 2.872 5.08 5.523a7.453 7.453 0 0 1-2.227 7.174l-9.052 8.381a9.543 9.543 0 0 1-4.384 2.327"/>
        <path fill="#FBD10A" d="M8.46 2.821a8.468 8.468 0 0 0-3.873 2.057C2.34 6.958 1.4 9.987 2.073 12.98l1.915 8.524c.672 2.993 2.816 5.324 5.736 6.236 2.919.913 6.004.215 8.25-1.865l9.053-8.382a6.343 6.343 0 0 0 1.895-6.106 6.323 6.323 0 0 0-4.323-4.7l-11.76-3.675a8.453 8.453 0 0 0-4.378-.19m3.822 27.176c-1.045 0-2.095-.16-3.112-.477-3.56-1.113-6.176-3.957-6.996-7.607L.26 13.39c-.82-3.65.327-7.344 3.067-9.882C6.067.97 9.83.119 13.391 1.232l11.76 3.674c2.842.888 4.93 3.157 5.584 6.07.654 2.914-.261 5.862-2.448 7.887l-9.052 8.382a10.326 10.326 0 0 1-4.725 2.505 10.1 10.1 0 0 1-2.227.248"/>
        <path fill="#FFF" d="M8.137 0c2.988 0 5.41 2.43 5.41 5.428 0 2.998-2.422 5.428-5.41 5.428s-5.41-2.43-5.41-5.428C2.727 2.43 5.149 0 8.137 0M11.01 12.84l8.72 7.445c.355.353.9.38 1.22.059l1.522-1.528c.321-.32.294-.867-.06-1.222L14.995 8.84c-.352-.354-.898-.38-1.219-.06l-2.826 2.836c-.32.322-.294.87.06 1.224M23.01 20.402l-.56.795c.848.603 3.23 2.632 3.064 4-.06.5-.5.915-1.304 1.232-1.932.762-3.66-.552-5.33-1.823-1-.761-1.944-1.48-2.928-1.76-.693-.198-6.815-1.754-8.877 4.077l.915.325c1.729-4.891 6.714-3.746 7.696-3.466.81.23 1.683.895 2.608 1.6 1.407 1.07 2.96 2.252 4.74 2.252.492 0 1.002-.089 1.53-.298 1.164-.459 1.807-1.139 1.914-2.022.265-2.193-3.085-4.64-3.467-4.912"/>
        <path fill="#FBD10A" d="M4.778 3.64a1.806 1.806 0 0 1 2.07-2.098c.747.12 1.352.72 1.478 1.468a1.806 1.806 0 0 1-2.07 2.098A1.803 1.803 0 0 1 4.778 3.64"/>
    </g>
</svg>
