<svg xmlns="http://www.w3.org/2000/svg" xmlns:xlink="http://www.w3.org/1999/xlink" width="32" height="30" viewBox="0 0 32 30">
    <defs>
        <path id="a" d="M0 .095h31.94v29.793H0z"/>
    </defs>
    <g fill="none" fill-rule="evenodd">
        <path fill="#FBD10A" d="M8.565 1.478a9.508 9.508 0 0 0-4.35 2.278c-2.523 2.306-3.58 5.663-2.824 8.98l1.977 8.684c.755 3.316 3.163 5.9 6.441 6.911 3.279 1.011 6.743.238 9.266-2.068l9.344-8.538c1.952-1.784 2.769-4.381 2.185-6.947-.584-2.566-2.447-4.564-4.984-5.347L13.48 1.688a9.57 9.57 0 0 0-4.915-.21m6.245 27.434a9.951 9.951 0 0 1-5.115-.219c-3.41-1.052-5.916-3.74-6.701-7.19L1.017 12.82c-.785-3.45.313-6.943 2.938-9.342 2.625-2.399 6.229-3.203 9.64-2.151l12.14 3.743c2.668.823 4.628 2.926 5.243 5.626.614 2.7-.245 5.432-2.3 7.309l-9.343 8.538c-1.312 1.2-2.87 2-4.525 2.37"/>
        <g transform="translate(0 .017)">
            <mask id="b" fill="#fff">
                <use xlink:href="#a"/>
            </mask>
            <path fill="#FBD10A" d="M10.614 1.997c-.634 0-1.265.068-1.88.206a8.779 8.779 0 0 0-3.999 2.094c-2.32 2.12-3.29 5.206-2.595 8.254l1.976 8.685c.694 3.048 2.908 5.423 5.922 6.352 3.013.93 6.197.219 8.517-1.9l9.344-8.539c1.748-1.597 2.48-3.923 1.956-6.22-.523-2.299-2.191-4.089-4.463-4.79l-12.14-3.743a8.96 8.96 0 0 0-2.638-.4m2.065 27.892c-1.079 0-2.163-.163-3.212-.486-3.675-1.134-6.375-4.03-7.222-7.749L.268 12.97C-.578 9.25.606 5.487 3.435 2.902 6.264.317 10.147-.55 13.823.583l12.14 3.743c2.933.905 5.088 3.217 5.763 6.185.676 2.967-.269 5.97-2.527 8.034l-9.343 8.538a10.708 10.708 0 0 1-4.877 2.553c-.754.168-1.526.252-2.3.252" mask="url(#b)"/>
        </g>
        <path fill="#FBD10A" d="M17.62 15.627c-.338-1.974 1.354-3.666 3.35-3.352 1.21.19 2.189 1.15 2.393 2.345.338 1.974-1.354 3.666-3.351 3.352-1.209-.19-2.189-1.15-2.393-2.345"/>
        <path fill="#FFF" d="M13.03 17.41a.654.654 0 0 1 .626.681.655.655 0 0 1-.688.62H5.847a.654.654 0 0 1-.648-.66.654.654 0 0 1 .666-.64h7.103a.624.624 0 0 1 .061 0zm.626-2.388a.655.655 0 0 1-.688.62H5.847a.653.653 0 0 1-.648-.66.654.654 0 0 1 .666-.641h7.103a.653.653 0 0 1 .688.68zm9.735.108c0 1.58-1.305 2.864-2.9 2.864-1.596 0-2.9-1.284-2.9-2.864 0-1.58 1.304-2.877 2.9-2.877 1.595 0 2.9 1.296 2.9 2.877zM7.713 11.292a1.315 1.315 0 0 1-2.628 0c0-.712.598-1.3 1.314-1.3.716 0 1.314.588 1.314 1.3zm2.874 0a1.315 1.315 0 0 1-2.628 0c0-.712.598-1.3 1.314-1.3.716 0 1.314.588 1.314 1.3zm2.874 0a1.315 1.315 0 0 1-2.628 0c0-.712.598-1.3 1.314-1.3.716 0 1.314.588 1.314 1.3zm8.97-9.756a.626.626 0 0 0-.061 0 .664.664 0 0 0-.195.03L5.896 6.119a.66.66 0 0 0-.041.02h-1.53c-1.804 0-3.274 1.49-3.274 3.293V21.06c0 1.8 1.47 3.292 3.275 3.292H26.69c1.805 0 3.264-1.492 3.264-3.292V9.432c0-1.803-1.46-3.293-3.264-3.293H10.679l11.855-3.323a.653.653 0 0 0 .5-.58.653.653 0 0 0-.603-.7z"/>
    </g>
</svg>
