<svg xmlns="http://www.w3.org/2000/svg" xmlns:xlink="http://www.w3.org/1999/xlink" width="24" height="13" viewBox="0 0 24 13">
    <defs>
        <path id="a" d="M0 .067h12.392v12.422H0z"/>
    </defs>
    <g fill="none" fill-rule="evenodd">
        <path fill="#FFF" d="M10.868 6.303a4.678 4.678 0 0 1-4.672 4.683 4.678 4.678 0 0 1-4.672-4.683 4.678 4.678 0 0 1 4.672-4.684 4.678 4.678 0 0 1 4.672 4.684"/>
        <g transform="translate(0 .025)">
            <mask id="b" fill="#fff">
                <use xlink:href="#a"/>
            </mask>
            <path fill="#FFF" d="M6.196.685C3.119.685.616 3.194.616 6.278s2.503 5.593 5.58 5.593c3.076 0 5.58-2.51 5.58-5.593 0-3.084-2.504-5.593-5.58-5.593m0 11.804C2.779 12.489 0 9.702 0 6.278 0 2.853 2.78.067 6.196.067s6.196 2.786 6.196 6.21c0 3.425-2.78 6.212-6.196 6.212" mask="url(#b)"/>
        </g>
        <path fill="#FFF" d="M15.14 5.059v1.024h.855a.91.91 0 0 0 .382-.062c.15-.072.225-.215.225-.43 0-.23-.072-.385-.218-.465-.081-.045-.204-.067-.367-.067h-.877zm1.642-.564c.14.06.258.15.356.267a1.069 1.069 0 0 1 .262.721c0 .181-.046.36-.137.534a.764.764 0 0 1-.452.371c.176.07.3.171.373.301.073.13.11.33.11.597v.256c0 .174.007.292.02.354.022.098.07.17.147.217v.096h-.877a1.877 1.877 0 0 1-.085-.533l-.005-.354c-.003-.243-.045-.405-.126-.486-.08-.082-.231-.122-.452-.122h-.776v1.495h-.777V4.397h1.819c.26.005.46.038.6.098zM20.173 5.072h-1.547v.81h1.42v.661h-1.42v.98h1.619v.686h-2.216V4.397h2.144zM21.159 4.778c.306-.313.695-.47 1.168-.47.633 0 1.096.21 1.389.63.161.237.248.474.26.712h-.795a1.086 1.086 0 0 0-.194-.414c-.142-.165-.351-.248-.63-.248a.775.775 0 0 0-.67.35c-.163.234-.244.564-.244.992 0 .428.086.748.258.96a.81.81 0 0 0 .658.32c.272 0 .48-.091.623-.274.079-.098.145-.246.197-.442h.79a1.718 1.718 0 0 1-.523 1.013c-.28.26-.638.39-1.076.39-.54 0-.966-.175-1.275-.527-.31-.353-.465-.837-.465-1.453 0-.665.176-1.178.529-1.539"/>
    </g>
</svg>
