<svg xmlns="http://www.w3.org/2000/svg" width="43" height="36" viewBox="0 0 43 36">
    <g fill="none" fill-rule="evenodd">
        <path fill="#FFC900" d="M33.778 12.314a1 1 0 0 1-2 0 3 3 0 0 0-3-3 1 1 0 1 1 0-2 5 5 0 0 1 5 5zm3.621-.444a1 1 0 1 1-2 0 6 6 0 0 0-6-6 1 1 0 0 1 0-2 8 8 0 0 1 8 8zm3.588-.877a1 1 0 0 1-2 0c0-4.934-4-8.933-8.933-8.933a1 1 0 1 1 0-2c6.038 0 10.933 4.895 10.933 10.933z"/>
        <path fill="#FFF" d="M11.06 16.85l9.47-10.258a2 2 0 0 1 2.94 0l9.47 10.259A4 4 0 0 1 34 19.564V32a4 4 0 0 1-4 4H14a4 4 0 0 1-4-4V19.564a4 4 0 0 1 1.06-2.713z"/>
        <path fill="#FFC900" d="M40 34h2a1 1 0 0 1 0 2H1a1 1 0 0 1 0-2h5V22h2v12h9v-9a2 2 0 0 1 2-2h6a2 2 0 0 1 2 2v9h11v-5h2v5z"/>
        <path fill="#FFF" d="M7 29.5c3.314 0 6-2.037 6-8.25 0-4.142-2-8.892-6-14.25-4 5.358-6 10.108-6 14.25 0 6.213 2.686 8.25 6 8.25zM39 32c1.657 0 3-.996 3-4.033 0-2.025-1-4.348-3-6.967-2 2.62-3 4.942-3 6.967C36 31.004 37.343 32 39 32z"/>
    </g>
</svg>
