<svg xmlns="http://www.w3.org/2000/svg" xmlns:xlink="http://www.w3.org/1999/xlink" width="32" height="30" viewBox="0 0 32 30">
    <defs>
        <path id="a" d="M.043.095H31.76v29.793H.043z"/>
    </defs>
    <g fill="none" fill-rule="evenodd">
        <path fill="#FBD10A" d="M8.773 1.479a9.42 9.42 0 0 0-4.32 2.277C1.949 6.062.9 9.42 1.65 12.736l1.963 8.684c.75 3.317 3.14 5.9 6.396 6.911 3.255 1.011 6.695.238 9.2-2.068l9.278-8.538a7.19 7.19 0 0 0 2.17-6.946c-.58-2.566-2.43-4.565-4.948-5.347L13.655 1.688a9.438 9.438 0 0 0-4.882-.21m6.201 27.434a9.815 9.815 0 0 1-5.078-.218c-3.387-1.052-5.875-3.74-6.655-7.19L1.28 12.82c-.78-3.45.31-6.943 2.917-9.342 2.607-2.4 6.185-3.203 9.572-2.152L25.822 5.07c2.65.822 4.596 2.926 5.206 5.625.61 2.7-.243 5.432-2.283 7.31l-9.277 8.537a9.8 9.8 0 0 1-4.494 2.37"/>
        <g transform="translate(.225 .018)">
            <mask id="b" fill="#fff">
                <use xlink:href="#a"/>
            </mask>
            <path fill="#FBD10A" d="M8.715 2.202a8.7 8.7 0 0 0-3.97 2.095c-2.303 2.12-3.266 5.205-2.577 8.254l1.963 8.684c.689 3.049 2.887 5.424 5.88 6.353 2.992.929 6.153.219 8.456-1.9l9.278-8.539a6.438 6.438 0 0 0 1.943-6.22 6.457 6.457 0 0 0-4.432-4.79L13.203 2.397a8.713 8.713 0 0 0-4.488-.194zm3.918 27.686c-1.071 0-2.147-.163-3.189-.486-3.65-1.134-6.33-4.03-7.171-7.75L.31 12.97C-.53 9.25.644 5.487 3.454 2.902 6.263.317 10.118-.551 13.769.582l12.054 3.744c2.913.905 5.052 3.217 5.723 6.184.67 2.968-.267 5.971-2.51 8.035l-9.277 8.538a10.607 10.607 0 0 1-4.843 2.553c-.748.168-1.514.252-2.283.252z" mask="url(#b)"/>
        </g>
        <path fill="#FFF" d="M25.422 2.66v-.193a.442.442 0 0 0-.505-.447l-.19.022h-.003L8.144 3.98h-.002l-.192.023a.586.586 0 0 0-.504.565v.194l-.01 14.48a6.095 6.095 0 0 0-1.595-.39 6.54 6.54 0 0 0-.725-.045c-.2 0-.395.011-.589.029-.49.043-.96.138-1.398.281l-.026.01a5.597 5.597 0 0 0-1.237.58C.728 20.43 0 21.521 0 22.736c0 .671.222 1.304.613 1.857l.007.012c.012.017.027.033.04.05.88 1.197 2.55 2.01 4.456 2.01 2.013 0 3.758-.907 4.592-2.213.332-.52.524-1.1.524-1.715v-.002h.015V9.338l12.378-1.447v9.249a6.237 6.237 0 0 0-2.32-.434c-.175 0-.349.007-.52.02-1.458.115-2.734.707-3.571 1.564-.64.656-1.024 1.467-1.024 2.344v.001c0 .81.323 1.565.877 2.192.921 1.046 2.48 1.737 4.239 1.737 1.758 0 3.317-.691 4.239-1.737.553-.627.877-1.382.877-2.192v-.001H25.435l-.013-17.973z"/>
        <path fill="#FBD10A" d="M20.315 20.908a1.845 1.845 0 0 1 2.122-2.137 1.843 1.843 0 0 1 1.515 1.496 1.845 1.845 0 0 1-2.122 2.137 1.843 1.843 0 0 1-1.515-1.496"/>
    </g>
</svg>
