<svg xmlns="http://www.w3.org/2000/svg" xmlns:xlink="http://www.w3.org/1999/xlink" width="24" height="10" viewBox="0 0 24 10">
    <defs>
        <path id="a" d="M0 .023h12.95v9.204H0z"/>
        <path id="c" d="M.008.049h1.864v9.523H.008z"/>
        <path id="e" d="M.324.918h2v10h-2z"/>
    </defs>
    <g fill="none" fill-rule="evenodd">
        <g transform="translate(0 .082)">
            <mask id="b" fill="#fff">
                <use xlink:href="#a"/>
            </mask>
            <path fill="#FFF" d="M12.828.034L8.074 2.758V.108c0-.064-.067-.105-.121-.074L.043 4.566a.087.087 0 0 0 0 .15l7.91 4.5c.054.032.12-.01.12-.074V6.511l4.755 2.706c.055.03.121-.01.121-.075V.108c0-.064-.066-.105-.12-.074" mask="url(#b)"/>
        </g>
        <g transform="translate(17.442 .082)">
            <mask id="d" fill="#fff">
                <use xlink:href="#c"/>
            </mask>
            <path fill="#FFF" d="M1.743 9.572H.138a.133.133 0 0 1-.13-.135V.184C.008.11.066.05.138.05h1.605c.071 0 .13.06.13.135v9.253a.133.133 0 0 1-.13.135" mask="url(#d)"/>
        </g>
        <g transform="translate(21.676 -.918)">
            <mask id="f" fill="#fff">
                <use xlink:href="#e"/>
            </mask>
            <path fill="#FFF" d="M2.185 10.918H.463a.14.14 0 0 1-.139-.142V1.06a.14.14 0 0 1 .14-.142h1.72a.14.14 0 0 1 .14.142v9.716a.14.14 0 0 1-.14.142" mask="url(#f)"/>
        </g>
    </g>
</svg>
