<svg xmlns="http://www.w3.org/2000/svg" width="38" height="38" viewBox="0 0 38 38">
    <path fill="#FFF" fill-rule="evenodd" d="M17 37.896a18.958 18.958 0 0 1-2-.318V24a5 5 0 0 0-5-5H8.83a3.001 3.001 0 1 0 0 2H10a3 3 0 0 1 3 3v13.033C5.447 34.521 0 27.397 0 19 0 8.507 8.507 0 19 0c.335 0 .669.009 1 .026V13a5 5 0 0 0 5 5h3.17a3.001 3.001 0 1 0 0-2H25a3 3 0 0 1-3-3V.236C31.068 1.674 38 9.527 38 19c0 9.121-6.427 16.741-15 18.578V28a3 3 0 0 1 3-3h3.17a3.001 3.001 0 1 0 0-2H26a5 5 0 0 0-5 5v9.896c-.657.069-1.325.104-2 .104V15a5 5 0 0 0-5-5h-3.17a3.001 3.001 0 1 0 0 2H14a3 3 0 0 1 3 3v22.896zM31 18a1 1 0 1 1 0-2 1 1 0 0 1 0 2zM8 12a1 1 0 1 1 0-2 1 1 0 0 1 0 2zm-2 9a1 1 0 1 1 0-2 1 1 0 0 1 0 2zm26 4a1 1 0 1 1 0-2 1 1 0 0 1 0 2z"/>
</svg>
